#N canvas 360 58 1071 687 10;
#X obj 69 76 key;
#X obj 69 145 t b b;
#X msg 96 180 stop;
#X msg 69 307 1;
#X obj 69 338 change;
#X msg 126 307 0;
#X obj 126 212 keyup;
#X obj 69 365 togedge;
#X obj 69 110 select 113;
#X obj 126 240 select 113;
#X obj 68 396 bng 15 250 50 0 empty empty empty 17 7 0 10 -262144 -1
-1;
#X obj 126 274 del 50;
#X obj 210 76 key;
#X obj 210 145 t b b;
#X msg 237 180 stop;
#X msg 210 307 1;
#X obj 210 338 change;
#X msg 267 307 0;
#X obj 267 212 keyup;
#X obj 210 365 togedge;
#X obj 209 396 bng 15 250 50 0 empty empty empty 17 7 0 10 -262144
-1 -1;
#X obj 267 274 del 50;
#X obj 210 110 select 119;
#X obj 267 240 select 119;
#X obj 351 81 key;
#X obj 351 150 t b b;
#X msg 378 185 stop;
#X msg 351 312 1;
#X obj 351 343 change;
#X msg 408 312 0;
#X obj 408 217 keyup;
#X obj 351 370 togedge;
#X obj 350 401 bng 15 250 50 0 empty empty empty 17 7 0 10 -262144
-1 -1;
#X obj 408 279 del 50;
#X obj 351 115 select 101;
#X obj 408 245 select 101;
#X obj 497 82 key;
#X obj 497 151 t b b;
#X msg 524 186 stop;
#X msg 497 313 1;
#X obj 497 344 change;
#X msg 554 313 0;
#X obj 554 218 keyup;
#X obj 497 371 togedge;
#X obj 496 402 bng 15 250 50 0 empty empty empty 17 7 0 10 -262144
-1 -1;
#X obj 554 280 del 50;
#X obj 640 78 key;
#X obj 640 147 t b b;
#X msg 667 182 stop;
#X msg 640 309 1;
#X obj 640 340 change;
#X msg 697 309 0;
#X obj 697 214 keyup;
#X obj 640 367 togedge;
#X obj 639 398 bng 15 250 50 0 empty empty empty 17 7 0 10 -262144
-1 -1;
#X obj 697 276 del 50;
#X obj 497 116 select 114;
#X obj 554 246 select 114;
#X obj 640 112 select 116;
#X obj 697 242 select 116;
#X obj 256 674 dac~;
#X obj 260 574 readsf~ 2;
#X msg 235 471 open RIM127.WAV;
#X msg 372 465 open ST0T3SA.WAV;
#X msg 261 537 start;
#X msg 664 460 open HANDCLP1.WAV;
#X obj 68 472 bng 15 250 50 0 empty empty empty 17 7 0 10 -262144 -1
-1;
#X msg 95 470 open BTAA0D7.WAV;
#X obj 68 433 t b b;
#X obj 207 472 bng 15 250 50 0 empty empty empty 17 7 0 10 -262144
-1 -1;
#X obj 208 432 t b b;
#X obj 345 470 bng 15 250 50 0 empty empty empty 17 7 0 10 -262144
-1 -1;
#X obj 345 431 t b b;
#X obj 494 469 bng 15 250 50 0 empty empty empty 17 7 0 10 -262144
-1 -1;
#X obj 494 430 t b b;
#X obj 637 461 bng 15 250 50 0 empty empty empty 17 7 0 10 -262144
-1 -1;
#X obj 637 422 t b b;
#X msg 521 466 open HHCD4.WAV;
#X obj 281 598 hsl 128 15 0 1 0 0 empty empty empty -2 -8 0 10 -262144
-1 -1 12700 1;
#X floatatom 278 622 5 0 0 0 - - -;
#X obj 256 646 *~;
#X text 33 6 ok \, turns out i'm not nuts. this is the closest i got
to fixing it. use [qwerty] http://lists.puredata.info/pipermail/pd-dev/2004-11/003278.html
;
#X text 426 594 < volume control;
#X obj 429 546 loadbang;
#X msg 355 573 0.75;
#X connect 0 0 8 0;
#X connect 1 0 3 0;
#X connect 1 1 2 0;
#X connect 2 0 11 0;
#X connect 3 0 4 0;
#X connect 4 0 7 0;
#X connect 5 0 4 0;
#X connect 6 0 9 0;
#X connect 7 0 10 0;
#X connect 8 0 1 0;
#X connect 8 1 1 0;
#X connect 9 0 11 0;
#X connect 10 0 68 0;
#X connect 11 0 5 0;
#X connect 12 0 22 0;
#X connect 13 0 15 0;
#X connect 13 1 14 0;
#X connect 14 0 21 0;
#X connect 15 0 16 0;
#X connect 16 0 19 0;
#X connect 17 0 16 0;
#X connect 18 0 23 0;
#X connect 19 0 20 0;
#X connect 20 0 70 0;
#X connect 21 0 17 0;
#X connect 22 0 13 0;
#X connect 22 1 13 0;
#X connect 23 0 21 0;
#X connect 24 0 34 0;
#X connect 25 0 27 0;
#X connect 25 1 26 0;
#X connect 26 0 33 0;
#X connect 27 0 28 0;
#X connect 28 0 31 0;
#X connect 29 0 28 0;
#X connect 30 0 35 0;
#X connect 31 0 32 0;
#X connect 32 0 72 0;
#X connect 33 0 29 0;
#X connect 34 0 25 0;
#X connect 34 1 25 0;
#X connect 35 0 33 0;
#X connect 36 0 56 0;
#X connect 37 0 39 0;
#X connect 37 1 38 0;
#X connect 38 0 45 0;
#X connect 39 0 40 0;
#X connect 40 0 43 0;
#X connect 41 0 40 0;
#X connect 42 0 57 0;
#X connect 43 0 44 0;
#X connect 44 0 74 0;
#X connect 45 0 41 0;
#X connect 46 0 58 0;
#X connect 47 0 49 0;
#X connect 47 1 48 0;
#X connect 48 0 55 0;
#X connect 49 0 50 0;
#X connect 50 0 53 0;
#X connect 51 0 50 0;
#X connect 52 0 59 0;
#X connect 53 0 54 0;
#X connect 54 0 76 0;
#X connect 55 0 51 0;
#X connect 56 0 37 0;
#X connect 56 1 37 0;
#X connect 57 0 45 0;
#X connect 58 0 47 0;
#X connect 58 1 47 0;
#X connect 59 0 55 0;
#X connect 61 0 80 0;
#X connect 62 0 61 0;
#X connect 63 0 61 0;
#X connect 64 0 61 0;
#X connect 65 0 61 0;
#X connect 66 0 64 0;
#X connect 67 0 61 0;
#X connect 68 0 66 0;
#X connect 68 1 67 0;
#X connect 69 0 64 0;
#X connect 70 0 69 0;
#X connect 70 1 62 0;
#X connect 71 0 64 0;
#X connect 72 0 71 0;
#X connect 72 1 63 0;
#X connect 73 0 64 0;
#X connect 74 0 73 0;
#X connect 74 1 77 0;
#X connect 75 0 64 0;
#X connect 76 0 75 0;
#X connect 76 1 65 0;
#X connect 77 0 61 0;
#X connect 78 0 79 0;
#X connect 79 0 80 1;
#X connect 80 0 60 0;
#X connect 83 0 84 0;
#X connect 84 0 78 0;
