#N canvas 360 58 1071 687 10;
#X obj 68 396 bng 15 250 50 0 empty empty empty 17 7 0 10 -262144 -1
-1;
#X obj 209 396 bng 15 250 50 0 empty empty empty 17 7 0 10 -262144
-1 -1;
#X obj 350 401 bng 15 250 50 0 empty empty empty 17 7 0 10 -262144
-1 -1;
#X obj 496 402 bng 15 250 50 0 empty empty empty 17 7 0 10 -262144
-1 -1;
#X obj 639 398 bng 15 250 50 0 empty empty empty 17 7 0 10 -262144
-1 -1;
#X obj 98 791 dac~;
#X obj 68 551 readsf~ 2;
#X msg 235 471 open RIM127.WAV;
#X msg 372 465 open ST0T3SA.WAV;
#X obj 68 472 bng 15 250 50 0 empty empty empty 17 7 0 10 -262144 -1
-1;
#X msg 95 470 open BTAA0D7.WAV;
#X obj 68 433 t b b;
#X obj 207 472 bng 15 250 50 0 empty empty empty 17 7 0 10 -262144
-1 -1;
#X obj 208 432 t b b;
#X obj 345 470 bng 15 250 50 0 empty empty empty 17 7 0 10 -262144
-1 -1;
#X obj 345 431 t b b;
#X obj 494 469 bng 15 250 50 0 empty empty empty 17 7 0 10 -262144
-1 -1;
#X obj 494 430 t b b;
#X obj 637 461 bng 15 250 50 0 empty empty empty 17 7 0 10 -262144
-1 -1;
#X obj 637 422 t b b;
#X obj 123 715 hsl 128 15 0 1 0 0 empty empty empty -2 -8 0 10 -262144
-1 -1 9525 1;
#X floatatom 120 739 5 0 0 0 - - -;
#X obj 98 763 *~;
#X text 268 714 < volume control;
#X obj 271 663 loadbang;
#X msg 197 690 0.75;
#X floatatom 44 231 5 0 0 0 - - -;
#X floatatom 82 230 5 0 0 0 - - -;
#N canvas 0 22 450 300 (subpatch) 0;
#X obj 139 55 inlet;
#X obj 139 111 change;
#X obj 139 162 outlet;
#X connect 0 0 1 0;
#X connect 1 0 2 0;
#X restore 82 199 pd;
#X floatatom 122 230 5 0 0 0 - - -;
#N canvas 0 22 450 300 (subpatch) 0;
#X obj 139 55 inlet;
#X obj 139 111 change;
#X obj 139 162 outlet;
#X connect 0 0 1 0;
#X connect 1 0 2 0;
#X restore 122 199 pd;
#X floatatom 160 229 5 0 0 0 - - -;
#N canvas 0 22 450 300 (subpatch) 0;
#X obj 139 55 inlet;
#X obj 139 111 change;
#X obj 139 162 outlet;
#X connect 0 0 1 0;
#X connect 1 0 2 0;
#X restore 160 198 pd;
#X floatatom 199 229 5 0 0 0 - - -;
#N canvas 0 22 450 300 (subpatch) 0;
#X obj 139 55 inlet;
#X obj 139 111 change;
#X obj 139 162 outlet;
#X connect 0 0 1 0;
#X connect 1 0 2 0;
#X restore 199 198 pd;
#N canvas 0 22 450 300 keyControl 1;
#X obj 211 19 keyname;
#X obj 211 108 symbol;
#X obj 211 146 pack s f;
#X msg 211 178 set \$1 \$2;
#X msg 172 208 Meta_L 1;
#X obj 211 66 t b b f;
#X obj 172 251 outlet keyMessage;
#X connect 0 0 5 0;
#X connect 0 1 1 1;
#X connect 1 0 2 0;
#X connect 2 0 3 0;
#X connect 3 0 4 0;
#X connect 4 0 6 0;
#X connect 5 0 4 0;
#X connect 5 1 1 0;
#X connect 5 2 2 1;
#X restore 44 73 pd keyControl;
#X obj 44 160 route q w e r t;
#X obj 44 281 sel 1;
#X obj 82 281 sel 1;
#X obj 122 281 sel 1;
#X obj 160 281 sel 1;
#X obj 199 281 sel 1;
#X msg 68 507 start;
#X obj 207 552 readsf~ 2;
#X msg 207 508 start;
#X obj 345 552 readsf~ 2;
#X msg 345 508 start;
#X obj 491 552 readsf~ 2;
#X obj 638 544 readsf~ 2;
#X msg 638 500 start;
#X msg 521 466 open HANDCLP1.WAV;
#X msg 491 508 start;
#X msg 664 460 open HHCD2.WAV;
#N canvas 0 22 450 300 (subpatch) 0;
#X obj 139 55 inlet;
#X obj 139 111 change;
#X obj 139 162 outlet;
#X connect 0 0 1 0;
#X connect 1 0 2 0;
#X restore 44 200 pd;
#X text 33 6;
#X connect 0 0 11 0;
#X connect 1 0 13 0;
#X connect 2 0 15 0;
#X connect 3 0 17 0;
#X connect 4 0 19 0;
#X connect 6 0 22 0;
#X connect 7 0 43 0;
#X connect 8 0 45 0;
#X connect 9 0 42 0;
#X connect 10 0 6 0;
#X connect 11 0 9 0;
#X connect 11 1 10 0;
#X connect 12 0 44 0;
#X connect 13 0 12 0;
#X connect 13 1 7 0;
#X connect 14 0 46 0;
#X connect 15 0 14 0;
#X connect 15 1 8 0;
#X connect 16 0 51 0;
#X connect 17 0 16 0;
#X connect 17 1 50 0;
#X connect 18 0 49 0;
#X connect 19 0 18 0;
#X connect 19 1 52 0;
#X connect 20 0 21 0;
#X connect 21 0 22 1;
#X connect 22 0 5 0;
#X connect 22 0 5 1;
#X connect 24 0 25 0;
#X connect 25 0 20 0;
#X connect 26 0 37 0;
#X connect 27 0 38 0;
#X connect 28 0 27 0;
#X connect 29 0 39 0;
#X connect 30 0 29 0;
#X connect 31 0 40 0;
#X connect 32 0 31 0;
#X connect 33 0 41 0;
#X connect 34 0 33 0;
#X connect 35 0 36 0;
#X connect 36 0 53 0;
#X connect 36 1 28 0;
#X connect 36 2 30 0;
#X connect 36 3 32 0;
#X connect 36 4 34 0;
#X connect 37 0 0 0;
#X connect 38 0 1 0;
#X connect 39 0 2 0;
#X connect 40 0 3 0;
#X connect 41 0 4 0;
#X connect 42 0 6 0;
#X connect 43 0 22 0;
#X connect 44 0 43 0;
#X connect 45 0 22 0;
#X connect 46 0 45 0;
#X connect 47 0 22 0;
#X connect 48 0 22 0;
#X connect 49 0 48 0;
#X connect 50 0 47 0;
#X connect 51 0 47 0;
#X connect 52 0 48 0;
#X connect 53 0 26 0;
