#N canvas 15 22 1283 777 10;
#X obj 132 33 key;
#X floatatom 132 65 5 0 0 0 - - -;
#X obj 132 101 select 119 115 97 100;
#X obj 132 142 bng 15 250 50 0 empty empty empty 17 7 0 10 -262144
-1 -1;
#X obj 218 142 bng 15 250 50 0 empty empty empty 17 7 0 10 -262144
-1 -1;
#X obj 317 142 bng 15 250 50 0 empty empty empty 17 7 0 10 -262144
-1 -1;
#X obj 426 142 bng 15 250 50 0 empty empty empty 17 7 0 10 -262144
-1 -1;
#X msg 132 164 10;
#X msg 218 164 -10;
#X msg 317 164 -1;
#X msg 426 164 1;
#X obj 132 295 +;
#X floatatom 131 354 5 0 0 0 - - -;
#X text 178 83 w;
#X text 202 84 a;
#X text 225 84 s;
#X text 247 85 d;
#X obj 592 158 < 90;
#X obj 592 181 tgl 15 0 empty empty empty 17 7 0 10 -262144 -1 -1 0
1;
#X obj 678 158 > 9;
#X obj 678 182 tgl 15 0 empty empty empty 17 7 0 10 -262144 -1 -1 1
1;
#X obj 767 134 % 10;
#X obj 767 157 != 0;
#X obj 767 182 tgl 15 0 empty empty empty 17 7 0 10 -262144 -1 -1 1
1;
#X obj 869 134 % 10;
#X obj 869 183 tgl 15 0 empty empty empty 17 7 0 10 -262144 -1 -1 1
1;
#X obj 869 157 != 9;
#X obj 152 387 send playerPosition;
#X obj 592 67 r playerPosition;
#X obj 767 207 send doorLeft;
#X obj 869 207 send doorRight;
#X obj 592 206 send doorUp;
#X obj 678 207 send doorDown;
#X obj 132 225 spigot;
#X obj 165 198 r doorUp;
#X obj 251 196 r doorDown;
#X obj 350 197 r doorLeft;
#X obj 460 202 r doorRight;
#X obj 218 225 spigot;
#X obj 317 226 spigot;
#X obj 426 229 spigot;
#X text 592 40 bounds checking;
#X obj 592 307 table themaze 99;
#X obj 594 526 tabwrite themaze;
#X msg 618 483 1 99;
#X obj 133 421 t f f;
#X obj 160 467 tabread themaze;
#X floatatom 160 492 5 0 0 0 - - -;
#X floatatom 160 444 5 0 0 0 - - -;
#X msg 160 578 0;
#X msg 191 578 1;
#X msg 55 213 0;
#X obj 55 188 loadbang;
#X obj 618 453 loadbang;
#X text 661 482 the goal;
#X obj 593 341 loadbang;
#X obj 159 612 tgl 15 0 empty empty empty 17 7 0 10 -262144 -1 -1 1
1;
#X obj 131 644 spigot;
#X floatatom 131 681 5 0 0 0 - - -;
#X msg 424 621 step;
#X msg 491 622 Congrats;
#X obj 287 682 print;
#X obj 260 321 r playerPosition2;
#X obj 131 712 s playerPosition2;
#X msg 593 373 -2 2 \, -2 11 \, -1 12 \, -2 13 \, -2 17 \, -2 22 \,
-2 26 \, -1 27 \, -2 28 \, -2 33 \, -2 37 \, -2 42 \, -1 43 \, -2 44
\, -2 53 \, -2 61 \, -2 66 \, -2 \, 70 \, -1 71 \, -2 72 \, -2 75 \,
-1 76 \, -2 77 \, -2 81 \, -2 86;
#X obj 160 521 sel -2 -1 0 1;
#X msg 287 618 watch out!;
#X msg 369 618 boom!;
#X obj 568 573 t b b;
#X obj 614 705 dac~;
#X obj 614 672 readsf~ 2;
#X msg 568 607 start;
#X text 593 282 a table for the mines;
#X text 603 423 the mines;
#X msg 613 635 open BTAA0D7.WAV;
#X obj 724 568 t b b;
#X obj 770 700 dac~;
#X obj 770 667 readsf~ 2;
#X msg 724 602 start;
#X obj 873 564 t b b;
#X obj 919 696 dac~;
#X obj 919 663 readsf~ 2;
#X msg 873 598 start;
#X msg 918 626 open HHCD2.WAV;
#X msg 769 630 open ST0T3SA.WAV;
#X connect 0 0 1 0;
#X connect 1 0 2 0;
#X connect 2 0 3 0;
#X connect 2 1 4 0;
#X connect 2 2 5 0;
#X connect 2 3 6 0;
#X connect 3 0 7 0;
#X connect 4 0 8 0;
#X connect 5 0 9 0;
#X connect 6 0 10 0;
#X connect 7 0 33 0;
#X connect 8 0 38 0;
#X connect 9 0 39 0;
#X connect 10 0 40 0;
#X connect 11 0 12 0;
#X connect 12 0 45 0;
#X connect 12 0 27 0;
#X connect 17 0 18 0;
#X connect 18 0 31 0;
#X connect 19 0 20 0;
#X connect 20 0 32 0;
#X connect 21 0 22 0;
#X connect 22 0 23 0;
#X connect 23 0 29 0;
#X connect 24 0 26 0;
#X connect 25 0 30 0;
#X connect 26 0 25 0;
#X connect 28 0 17 0;
#X connect 28 0 19 0;
#X connect 28 0 21 0;
#X connect 28 0 24 0;
#X connect 33 0 11 0;
#X connect 34 0 33 1;
#X connect 35 0 38 1;
#X connect 36 0 39 1;
#X connect 37 0 40 1;
#X connect 38 0 11 0;
#X connect 39 0 11 0;
#X connect 40 0 11 0;
#X connect 44 0 43 0;
#X connect 45 0 57 0;
#X connect 45 1 48 0;
#X connect 46 0 47 0;
#X connect 47 0 65 0;
#X connect 48 0 46 0;
#X connect 49 0 56 0;
#X connect 50 0 56 0;
#X connect 51 0 11 1;
#X connect 51 0 11 0;
#X connect 52 0 51 0;
#X connect 53 0 44 0;
#X connect 55 0 64 0;
#X connect 56 0 57 1;
#X connect 57 0 58 0;
#X connect 58 0 63 0;
#X connect 59 0 61 0;
#X connect 60 0 61 0;
#X connect 62 0 11 1;
#X connect 64 0 43 0;
#X connect 65 0 66 0;
#X connect 65 0 68 0;
#X connect 65 1 67 0;
#X connect 65 1 49 0;
#X connect 65 1 75 0;
#X connect 65 2 59 0;
#X connect 65 2 50 0;
#X connect 65 2 79 0;
#X connect 65 3 60 0;
#X connect 66 0 61 0;
#X connect 67 0 61 0;
#X connect 68 0 71 0;
#X connect 68 1 74 0;
#X connect 70 0 69 0;
#X connect 71 0 70 0;
#X connect 74 0 70 0;
#X connect 75 0 78 0;
#X connect 75 1 84 0;
#X connect 77 0 76 0;
#X connect 78 0 77 0;
#X connect 79 0 82 0;
#X connect 79 1 83 0;
#X connect 81 0 80 0;
#X connect 82 0 81 0;
#X connect 83 0 81 0;
#X connect 84 0 77 0;
