#N canvas 193 65 420 499 10;
#X obj 214 445 print;
#X obj 164 54 sel Up;
#X obj 214 54 sel Down;
#X obj 214 172 +;
#X floatatom 214 247 5 0 0 0 - - -;
#X obj 125 16 keyname;
#X obj 214 88 bng 15 250 50 0 empty empty empty 17 7 0 10 -262144 -1
-1;
#X obj 164 87 bng 15 250 50 0 empty empty empty 17 7 0 10 -262144 -1
-1;
#X text 185 14 which key is coming in?;
#X text 283 54 up \, or down?;
#X text 246 89 bang the appropriate bang;
#X obj 214 208 clip 0 9;
#X msg 15 396 lower bound;
#X msg 127 395 upper bound;
#X floatatom 16 223 5 0 0 0 - - -;
#X floatatom 160 335 5 0 0 0 - - -;
#X obj 127 367 spigot;
#X obj 160 300 > 9;
#X text 41 209;
#X floatatom 49 341 5 0 0 0 - - -;
#X obj 16 368 spigot;
#X obj 49 306 < 0;
#X text 14 166 check the bounds before clipping;
#X msg 165 119 0.5;
#X msg 214 119 -0.5;
#X connect 1 0 7 0;
#X connect 2 0 6 0;
#X connect 3 0 11 0;
#X connect 3 0 14 0;
#X connect 4 0 0 0;
#X connect 4 0 3 1;
#X connect 5 1 1 0;
#X connect 5 1 2 0;
#X connect 6 0 24 0;
#X connect 7 0 23 0;
#X connect 11 0 4 0;
#X connect 12 0 0 0;
#X connect 13 0 0 0;
#X connect 14 0 17 0;
#X connect 14 0 16 0;
#X connect 14 0 21 0;
#X connect 14 0 20 0;
#X connect 15 0 16 1;
#X connect 16 0 13 0;
#X connect 17 0 15 0;
#X connect 19 0 20 1;
#X connect 20 0 12 0;
#X connect 21 0 19 0;
#X connect 23 0 3 0;
#X connect 24 0 3 0;
