#N canvas 526 75 611 340 10;
#X obj 199 244 print;
#X obj 148 63 sel Up;
#X obj 198 63 sel Down;
#X obj 198 181 +;
#X msg 149 128 1;
#X msg 198 128 -1;
#X floatatom 199 210 5 0 0 0 - - -;
#X obj 109 25 keyname;
#X obj 198 97 bng 15 250 50 0 empty empty empty 17 7 0 10 -262144 -1
-1;
#X obj 148 96 bng 15 250 50 0 empty empty empty 17 7 0 10 -262144 -1
-1;
#X text 169 23 which key is coming in?;
#X text 267 63 up \, or down?;
#X text 230 98 bang the appropriate bang;
#X connect 1 0 9 0;
#X connect 2 0 8 0;
#X connect 3 0 6 0;
#X connect 4 0 3 0;
#X connect 5 0 3 0;
#X connect 6 0 0 0;
#X connect 6 0 3 1;
#X connect 7 1 1 0;
#X connect 7 1 2 0;
#X connect 8 0 5 0;
#X connect 9 0 4 0;
