#N canvas 0 22 450 300 10;
#N canvas 484 145 499 380 btwCalc 1;
#X obj 198 19 inlet;
#X obj 213 47 inlet;
#X obj 238 173 / 100;
#X obj 212 202 +;
#X floatatom 212 225 5 0 0 0 - - -;
#X msg 212 150 1;
#X obj 212 117 t b b;
#X obj 197 260 *;
#X obj 197 292 outlet;
#X floatatom 275 118 5 0 0 0 - - -;
#X connect 0 0 7 0;
#X connect 1 0 6 0;
#X connect 1 0 9 0;
#X connect 2 0 3 1;
#X connect 3 0 4 0;
#X connect 4 0 7 1;
#X connect 5 0 3 0;
#X connect 6 0 5 0;
#X connect 6 1 2 0;
#X connect 7 0 8 0;
#X connect 9 0 2 0;
#X restore 161 79 pd btwCalc;
#X obj 218 24 loadbang;
#X msg 218 51 19;
#X text 257 51 VAT Percentage;
#X floatatom 161 51 5 0 0 0 - - -;
#X floatatom 161 107 5 0 0 0 - - -;
#X text 62 48 without VAT ->;
#X text 73 107 with VAT ->;
#X connect 0 0 5 0;
#X connect 1 0 2 0;
#X connect 2 0 0 1;
#X connect 4 0 0 0;
