#N canvas 680 243 571 536 10;
#X obj 240 49 loadbang;
#X msg 240 91 0;
#X obj 239 124 vradio 15 1 0 2 empty empty empty 0 -8 0 10 -262144
-1 -1 1;
#X text 261 122 recorder;
#X text 262 138 player;
#X obj 239 168 sel 0 1;
#X msg 239 205 recorder;
#X msg 307 205 player;
#X obj 170 252 list prepend;
#X obj 170 279 list trim;
#X obj 170 309 route recorder player;
#N canvas 13 190 270 517 recorder 1;
#X obj 1 14 inlet;
#X floatatom 1 92 5 0 0 0 - - -;
#X msg 42 330 start;
#X msg 1 221 stop;
#X obj 1 189 bng 15 250 50 0 empty empty empty 17 7 0 10 -262144 -1
-1;
#X obj 59 189 bng 15 250 50 0 empty empty empty 17 7 0 10 -262144 -1
-1;
#X obj 1 119 sel 0 1;
#X obj 1 473 writesf~;
#X obj 1 60 unpack f s;
#X obj 88 333 symbol;
#X msg 88 366 open \$1.wav;
#X obj 59 223 t b b;
#X obj -63 403 adc~ 1;
#X connect 0 0 8 0;
#X connect 1 0 6 0;
#X connect 2 0 7 0;
#X connect 3 0 7 0;
#X connect 4 0 3 0;
#X connect 5 0 11 0;
#X connect 6 0 4 0;
#X connect 6 1 5 0;
#X connect 8 0 1 0;
#X connect 8 1 9 1;
#X connect 9 0 10 0;
#X connect 10 0 7 0;
#X connect 11 0 2 0;
#X connect 11 1 9 0;
#X connect 12 0 7 0;
#X restore 170 365 pd recorder;
#N canvas 293 187 317 471 player 1;
#X obj 46 19 inlet;
#X obj 63 494 dac~;
#X obj 88 418 hsl 128 15 0 1 0 0 empty empty empty -2 -8 0 10 -262144
-1 -1 9525 1;
#X floatatom 85 442 5 0 0 0 - - -;
#X obj 63 466 *~;
#X obj 85 366 loadbang;
#X msg 85 393 0.75;
#X floatatom 45 88 5 0 0 0 - - -;
#X msg 64 228 start;
#X obj 64 148 bng 15 250 50 0 empty empty empty 17 7 0 10 -262144 -1
-1;
#X obj 45 115 sel 0 1;
#X obj 45 56 unpack f s;
#X obj 110 231 symbol;
#X msg 110 264 open \$1.wav;
#X obj 64 182 t b b;
#X obj 64 322 readsf~;
#X connect 0 0 11 0;
#X connect 2 0 3 0;
#X connect 3 0 4 1;
#X connect 4 0 1 0;
#X connect 4 0 1 1;
#X connect 5 0 6 0;
#X connect 6 0 2 0;
#X connect 7 0 10 0;
#X connect 8 0 15 0;
#X connect 9 0 14 0;
#X connect 10 1 9 0;
#X connect 11 0 7 0;
#X connect 11 1 12 1;
#X connect 12 0 13 0;
#X connect 13 0 15 0;
#X connect 14 0 8 0;
#X connect 14 1 12 0;
#X connect 15 0 4 0;
#X restore 231 335 pd player;
#N canvas 567 22 450 300 keyControl 1;
#X obj 205 19 keyname;
#X obj 244 108 symbol;
#X msg 224 178 set \$1 \$2;
#X msg 205 208 1 Meta_L;
#X obj 205 251 outlet keyMessage;
#X obj 224 146 pack f s;
#X obj 205 74 t b f b;
#X connect 0 0 6 0;
#X connect 0 1 1 1;
#X connect 1 0 5 1;
#X connect 2 0 3 0;
#X connect 3 0 4 0;
#X connect 5 0 2 0;
#X connect 6 0 3 0;
#X connect 6 1 5 0;
#X connect 6 2 1 0;
#X restore 128 198 pd keyControl;
#X connect 0 0 1 0;
#X connect 1 0 2 0;
#X connect 2 0 5 0;
#X connect 5 0 6 0;
#X connect 5 1 7 0;
#X connect 6 0 8 1;
#X connect 7 0 8 1;
#X connect 8 0 9 0;
#X connect 9 0 10 0;
#X connect 10 0 11 0;
#X connect 10 1 12 0;
#X connect 13 0 8 0;
