#N canvas 690 380 700 487 10;
#X obj 277 151 route a z e r t;
#X floatatom 277 222 5 0 0 0 - - -;
#N canvas 0 0 450 300 (subpatch) 0;
#X obj 139 55 inlet;
#X obj 139 111 change;
#X obj 139 162 outlet;
#X connect 0 0 1 0;
#X connect 1 0 2 0;
#X restore 277 191 pd;
#X floatatom 315 221 5 0 0 0 - - -;
#N canvas 0 0 450 300 (subpatch) 0;
#X obj 139 55 inlet;
#X obj 139 111 change;
#X obj 139 162 outlet;
#X connect 0 0 1 0;
#X connect 1 0 2 0;
#X restore 315 190 pd;
#X floatatom 355 221 5 0 0 0 - - -;
#N canvas 0 0 450 300 (subpatch) 0;
#X obj 139 55 inlet;
#X obj 139 111 change;
#X obj 139 162 outlet;
#X connect 0 0 1 0;
#X connect 1 0 2 0;
#X restore 355 190 pd;
#X floatatom 393 220 5 0 0 0 - - -;
#N canvas 0 0 450 300 (subpatch) 0;
#X obj 139 55 inlet;
#X obj 139 111 change;
#X obj 139 162 outlet;
#X connect 0 0 1 0;
#X connect 1 0 2 0;
#X restore 393 189 pd;
#X floatatom 432 220 5 0 0 0 - - -;
#N canvas 0 0 450 300 (subpatch) 0;
#X obj 139 55 inlet;
#X obj 139 111 change;
#X obj 139 162 outlet;
#X connect 0 0 1 0;
#X connect 1 0 2 0;
#X restore 432 189 pd;
#X obj 277 346 print a;
#X obj 315 320 print z;
#X obj 355 295 print e;
#X obj 393 270 print r;
#X obj 432 245 print y;
#N canvas 0 0 450 300 keyControl 0;
#X obj 211 19 keyname;
#X obj 211 108 symbol;
#X obj 211 146 pack s f;
#X msg 211 178 set \$1 \$2;
#X msg 172 208 Control_L 1;
#X obj 211 66 t b b f;
#X obj 172 251 outlet keyMessage;
#X connect 0 0 5 0;
#X connect 0 1 1 1;
#X connect 1 0 2 0;
#X connect 2 0 3 0;
#X connect 3 0 4 0;
#X connect 4 0 6 0;
#X connect 5 0 4 0;
#X connect 5 1 1 0;
#X connect 5 2 2 1;
#X restore 277 64 pd keyControl;
#X connect 0 0 2 0;
#X connect 0 1 4 0;
#X connect 0 2 6 0;
#X connect 0 3 8 0;
#X connect 0 4 10 0;
#X connect 1 0 11 0;
#X connect 2 0 1 0;
#X connect 3 0 12 0;
#X connect 4 0 3 0;
#X connect 5 0 13 0;
#X connect 6 0 5 0;
#X connect 7 0 14 0;
#X connect 8 0 7 0;
#X connect 9 0 15 0;
#X connect 10 0 9 0;
#X connect 16 0 0 0;
