#N canvas 0 22 452 424 10;
#X obj 187 89 tgl 15 0 empty empty empty 17 7 0 10 -262144 -1 -1 0
1;
#X msg 189 183 1;
#X obj 189 217 +;
#X floatatom 189 273 5 0 0 0 - - -;
#X obj 187 304 print;
#X msg 250 186 0;
#X obj 187 123 metro 500;
#X obj 187 48 sel 10;
#X connect 0 0 6 0;
#X connect 1 0 2 0;
#X connect 2 0 3 0;
#X connect 3 0 2 1;
#X connect 3 0 4 0;
#X connect 3 0 7 0;
#X connect 5 0 3 0;
#X connect 5 0 2 1;
#X connect 6 0 1 0;
#X connect 7 0 0 0;
