#N canvas 308 272 450 300 10;
#X obj 30 10 key;
#X obj 31 44 select 32;
#X obj 32 78 bng 15 250 50 0 empty empty empty 17 7 0 10 -262144 -1
-1;
#X obj 32 199 +;
#X floatatom 32 227 5 0 0 0 - - -;
#X msg 49 156 0;
#X msg 32 110 1;
#X text 71 10 get the current keypress;
#X text 104 43 select is keycode == 32;
#X text 52 76 bang!;
#X connect 0 0 1 0;
#X connect 1 0 2 0;
#X connect 2 0 6 0;
#X connect 3 0 4 0;
#X connect 4 0 3 1;
#X connect 5 0 3 1;
#X connect 5 0 4 0;
#X connect 6 0 3 0;
