#N canvas 615 22 988 668 10;
#X obj 122 23 key;
#X floatatom 122 55 5 0 0 0 - - -;
#X obj 122 91 select 119 115 97 100;
#X obj 122 132 bng 15 250 50 0 empty empty empty 17 7 0 10 -262144
-1 -1;
#X obj 208 132 bng 15 250 50 0 empty empty empty 17 7 0 10 -262144
-1 -1;
#X obj 307 132 bng 15 250 50 0 empty empty empty 17 7 0 10 -262144
-1 -1;
#X obj 416 132 bng 15 250 50 0 empty empty empty 17 7 0 10 -262144
-1 -1;
#X msg 122 154 10;
#X msg 208 154 -10;
#X msg 307 154 -1;
#X msg 416 154 1;
#X obj 122 285 +;
#X floatatom 121 319 5 0 0 0 - - -;
#X text 168 73 w;
#X text 192 74 a;
#X text 215 74 s;
#X text 237 75 d;
#X obj 582 148 < 90;
#X obj 582 171 tgl 15 0 empty empty empty 17 7 0 10 -262144 -1 -1 1
1;
#X obj 668 148 > 9;
#X obj 668 172 tgl 15 0 empty empty empty 17 7 0 10 -262144 -1 -1 0
1;
#X obj 757 124 % 10;
#X obj 757 147 != 0;
#X obj 757 172 tgl 15 0 empty empty empty 17 7 0 10 -262144 -1 -1 1
1;
#X obj 859 124 % 10;
#X obj 859 173 tgl 15 0 empty empty empty 17 7 0 10 -262144 -1 -1 1
1;
#X obj 859 147 != 9;
#X obj 142 352 send playerPosition;
#X obj 582 57 r playerPosition;
#X obj 757 197 send doorLeft;
#X obj 859 197 send doorRight;
#X obj 582 196 send doorUp;
#X obj 668 197 send doorDown;
#X obj 122 215 spigot;
#X obj 155 188 r doorUp;
#X obj 241 186 r doorDown;
#X obj 340 187 r doorLeft;
#X obj 450 192 r doorRight;
#X obj 208 215 spigot;
#X obj 307 216 spigot;
#X obj 416 219 spigot;
#X text 582 30 bounds checking;
#X obj 582 297 table themaze 99;
#X text 583 272 a table for the maze;
#X text 579 329 the walls;
#X msg 587 363 -1 2 \, -1 12 \, -1 22 \, -1 32 \, -1 42 \, -1 81 \,
-1 82 \, -1 83 \, -1 95 \, -1 85 \, -1 75 \, -1 65 \, -1 55 \, -1 45
\, -1 57 \, -1 47 \, -1 37 \, -1 27 \, -1 17 \, -1 7;
#X obj 588 466 tabwrite themaze;
#X msg 612 423 1 99;
#X obj 123 411 t f f;
#X obj 150 457 tabread themaze;
#X floatatom 150 482 5 0 0 0 - - -;
#X floatatom 150 434 5 0 0 0 - - -;
#X obj 150 532 sel -1 0 1;
#X msg 144 578 0;
#X msg 182 578 1;
#X connect 0 0 1 0;
#X connect 1 0 2 0;
#X connect 2 0 3 0;
#X connect 2 1 4 0;
#X connect 2 2 5 0;
#X connect 2 3 6 0;
#X connect 3 0 7 0;
#X connect 4 0 8 0;
#X connect 5 0 9 0;
#X connect 6 0 10 0;
#X connect 7 0 33 0;
#X connect 8 0 38 0;
#X connect 9 0 39 0;
#X connect 10 0 40 0;
#X connect 11 0 12 0;
#X connect 12 0 11 1;
#X connect 12 0 27 0;
#X connect 12 0 48 0;
#X connect 17 0 18 0;
#X connect 18 0 31 0;
#X connect 19 0 20 0;
#X connect 20 0 32 0;
#X connect 21 0 22 0;
#X connect 22 0 23 0;
#X connect 23 0 29 0;
#X connect 24 0 26 0;
#X connect 25 0 30 0;
#X connect 26 0 25 0;
#X connect 28 0 17 0;
#X connect 28 0 19 0;
#X connect 28 0 21 0;
#X connect 28 0 24 0;
#X connect 33 0 11 0;
#X connect 34 0 33 1;
#X connect 35 0 38 1;
#X connect 36 0 39 1;
#X connect 37 0 40 1;
#X connect 38 0 11 0;
#X connect 39 0 11 0;
#X connect 40 0 11 0;
#X connect 45 0 46 0;
#X connect 47 0 46 0;
#X connect 48 1 51 0;
#X connect 49 0 50 0;
#X connect 50 0 52 0;
#X connect 51 0 49 0;
